<?xml version="1.0" ?><!DOCTYPE svg  PUBLIC '-//W3C//DTD SVG 1.1//EN'  'http://www.w3.org/Graphics/SVG/1.1/DTD/svg11.dtd'><svg enable-background="new 0 0 128 128" id="Слой_1" version="1.1" viewBox="0 0 128 128" xml:space="preserve" xmlns="http://www.w3.org/2000/svg" xmlns:xlink="http://www.w3.org/1999/xlink"><g><path d="M6,104H2c0,9.4,7.6,17,17,17h107V17H21l0-15h-2C9.6,2,2,9.6,2,19v85L6,104c0-7.2,5.8-13,13-13h2l0-70h101   v96H19C11.8,117,6,111.2,6,104z M17,46.5c0,17.5,0,35,0,40.6c-4.4,0.5-8.3,2.7-11,5.9V19c0-6.5,4.8-11.9,11-12.8V46.5z" fill="#3EBBC4"/><path d="M48,29l-0.5,0.3c-5.8,3.3-9.3,9.5-9.3,16.2c0,0.6,0,1.2,0.1,1.9c0,0.2,0.1,0.4,0.1,0.7   c0.1,0.4,0.1,0.8,0.2,1.1c0.1,0.3,0.1,0.5,0.2,0.8c0.1,0.3,0.2,0.7,0.3,1c0.1,0.3,0.2,0.6,0.3,0.8c0.1,0.3,0.2,0.6,0.3,0.8   c0.1,0.3,0.3,0.6,0.4,0.9c0.1,0.2,0.2,0.4,0.3,0.6c0.2,0.4,0.4,0.7,0.6,1.1c0.1,0.1,0.1,0.3,0.2,0.4c0.3,0.5,0.6,0.9,1,1.3   c0,0,0,0,0,0.1c0.5,0.7,1.1,1.3,1.7,1.9l0.9,1c2.3,2.4,4.1,9.1,4.1,13.4v29.6c0,4.4,3.6,8,8,8c4.4,0,8-3.6,8-8V73.2   c0-4.3,1.7-11,4.1-13.4l0.9-1c0.6-0.6,1.2-1.2,1.7-1.9c0,0,0,0,0-0.1c0.3-0.4,0.6-0.9,0.9-1.3c0.1-0.1,0.2-0.3,0.2-0.4   c0.2-0.4,0.4-0.7,0.6-1.1c0.1-0.2,0.2-0.4,0.3-0.6c0.1-0.3,0.3-0.6,0.4-0.9c0.1-0.3,0.2-0.6,0.3-0.8c0.1-0.3,0.2-0.6,0.3-0.8   c0.1-0.3,0.2-0.6,0.3-1c0.1-0.3,0.1-0.5,0.2-0.8c0.1-0.4,0.1-0.8,0.2-1.2c0-0.2,0.1-0.4,0.1-0.7c0.1-0.6,0.1-1.2,0.1-1.9   c0,0,0,0,0,0h0h0c0-6.6-3.6-12.8-9.3-16.2L65.7,29h-3.2v15.5c-3.4,2.4-8,2.4-11.3,0V29H48z M60.8,73.2v29.6c0,2.2-1.8,4-4,4   s-4-1.8-4-4V73.2c0-2.6-0.6-6.5-1.8-10c1.8,0.6,3.8,0.9,5.8,0.9c2,0,4-0.3,5.8-0.9C61.4,66.7,60.8,70.6,60.8,73.2z M56.8,50.3   c3.1,0,6.3-1.1,8.8-3.2l0.9-0.4V34.4c3.1,2.8,5,6.8,5,11c0,0.5,0,1-0.1,1.5c0,0.2-0.1,0.4-0.1,0.5c0,0.3-0.1,0.6-0.1,0.9   c0,0.2-0.1,0.4-0.2,0.7c-0.1,0.2-0.1,0.5-0.2,0.7c-0.1,0.3-0.2,0.5-0.3,0.8c-0.1,0.2-0.1,0.4-0.2,0.5c-0.1,0.3-0.3,0.6-0.4,0.9   c-0.1,0.1-0.1,0.2-0.2,0.4c-0.2,0.4-0.4,0.7-0.6,1c0,0,0,0.1-0.1,0.1c-0.5,0.8-1.1,1.5-1.7,2.2L67,56c-2.6,2.5-6.2,4.1-10.1,4.1   c-3.9,0-7.5-1.6-10.1-4.1l-0.5-0.5c-0.6-0.7-1.2-1.4-1.7-2.2c0,0,0-0.1-0.1-0.1c-0.2-0.3-0.4-0.7-0.6-1.1c-0.1-0.1-0.1-0.2-0.2-0.4   c-0.1-0.3-0.3-0.6-0.4-0.9c-0.1-0.2-0.1-0.4-0.2-0.5c-0.1-0.3-0.2-0.5-0.3-0.8c-0.1-0.2-0.1-0.5-0.2-0.7c-0.1-0.2-0.1-0.4-0.2-0.7   c-0.1-0.3-0.1-0.6-0.1-0.9c0-0.2-0.1-0.4-0.1-0.5c0-0.5-0.1-1-0.1-1.5c0-4.2,1.9-8.3,5-11v11.9l0.7,0.6   C50.4,49.2,53.6,50.3,56.8,50.3z" fill="#3EBBC4"/><path d="M82.6,77l-1.1,0.6v24.6c0,4.8,3.9,8.7,8.7,8.7c4.8,0,8.7-3.9,8.7-8.7V77.5L97.7,77c-0.9-0.4-1-1.2-1-1.5   s0.1-1.1,1-1.5l1.1-0.6v-6.6h-6.7V37.4h-4v29.3h-6.7v6.6l1.1,0.6c0.9,0.4,1,1.2,1,1.5S83.5,76.5,82.6,77z M85.5,79.8   c1.3-1.1,2.1-2.7,2.1-4.4s-0.8-3.3-2.1-4.4v-0.3h9.3V71c-1.3,1.1-2.1,2.7-2.1,4.4s0.8,3.3,2.1,4.4v22.3c0,2.6-2.1,4.7-4.7,4.7   s-4.7-2.1-4.7-4.7V79.8z" fill="#3EBBC4"/><rect fill="#3EBBC4" height="5.4" width="5" x="87.7" y="29"/></g></svg>